<svg xmlns="http://www.w3.org/2000/svg" viewBox="0 0 1024 1024" width="1024" height="1024">
<path d="M 243,738 L 373,738 Z" fill="white"/><path d="M 421,737 L 474,737 Z" fill="white"/><path d="M 477,736 L 483,736 Z" fill="white"/><path d="M 417,736 Z" fill="white"/><path d="M 495,733 L 494,734 L 490,734 L 489,735 L 485,735 L 489,735 L 490,734 L 494,734 L 495,733 L 497,733 Z" fill="white"/><path d="M 414,732 L 414,736 L 415,736 L 414,735 Z" fill="white"/><path d="M 502,731 L 501,732 L 499,732 L 501,732 L 502,731 L 503,731 Z" fill="white"/><path d="M 512,727 L 511,728 L 510,728 L 509,729 L 507,729 L 506,730 L 505,730 L 506,730 L 507,729 L 509,729 L 510,728 L 511,728 L 512,727 L 513,727 Z" fill="white"/><path d="M 416,721 L 416,724 L 415,725 L 415,729 L 415,725 L 416,724 Z" fill="white"/><path d="M 378,716 L 378,718 L 377,719 L 377,722 L 376,723 L 376,727 L 375,728 L 375,738 L 375,728 L 376,727 L 376,723 L 377,722 L 377,719 L 378,718 Z" fill="white"/><path d="M 386,696 L 386,697 L 385,698 L 385,699 L 384,700 L 384,701 L 383,702 L 383,704 L 382,705 L 382,706 L 381,707 L 381,709 L 380,710 L 380,712 L 379,713 L 379,714 L 379,713 L 380,712 L 380,710 L 381,709 L 381,707 L 382,706 L 382,705 L 383,704 L 383,702 L 384,701 L 384,700 L 385,699 L 385,698 L 386,697 Z" fill="white"/><path d="M 394,680 L 393,681 L 393,682 L 392,683 L 392,684 L 391,685 L 391,686 L 390,687 L 390,688 L 389,689 L 389,690 L 388,691 L 388,692 L 387,693 L 387,694 L 387,693 L 388,692 L 388,691 L 389,690 L 389,689 L 390,688 L 390,687 L 391,686 L 391,685 L 392,684 L 392,683 L 393,682 L 393,681 Z" fill="white"/><path d="M 402,667 L 400,669 L 400,670 L 399,671 L 399,672 L 397,674 L 397,675 L 396,676 L 396,677 L 395,678 L 396,677 L 396,676 L 397,675 L 397,674 L 399,672 L 399,671 L 401,669 L 401,668 Z" fill="white"/><path d="M 510,601 L 492,619 L 492,620 L 491,621 L 490,621 L 490,622 L 489,623 L 488,623 L 488,624 L 465,647 L 465,648 L 464,649 L 463,649 L 463,650 L 450,663 L 450,664 L 445,669 L 445,670 L 441,674 L 441,675 L 438,678 L 438,679 L 435,682 L 435,683 L 433,685 L 433,686 L 431,688 L 431,689 L 429,691 L 429,692 L 428,693 L 428,694 L 426,696 L 426,697 L 425,698 L 425,699 L 424,700 L 424,701 L 423,702 L 423,703 L 422,704 L 422,705 L 421,706 L 421,707 L 420,708 L 420,710 L 419,711 L 419,713 L 418,714 L 418,716 L 417,717 L 417,719 L 417,717 L 418,716 L 418,714 L 419,713 L 419,711 L 420,710 L 420,709 L 421,708 L 421,706 L 422,705 L 422,704 L 423,703 L 423,702 L 424,701 L 424,700 L 425,699 L 425,698 L 426,697 L 426,696 L 428,694 L 428,693 L 430,691 L 430,690 L 431,689 L 431,688 L 433,686 L 433,685 L 435,683 L 435,682 L 438,679 L 438,678 L 441,675 L 441,674 L 446,669 L 446,668 L 451,663 L 451,662 L 471,642 L 471,641 L 501,611 L 501,610 L 502,609 L 503,609 L 503,608 L 509,602 L 511,602 L 514,605 L 514,606 L 515,606 L 517,608 L 517,609 L 518,609 L 519,610 L 519,611 L 520,611 L 524,615 L 524,616 L 525,617 L 526,617 L 527,618 L 527,619 L 529,621 L 530,621 L 544,635 L 544,636 L 545,636 L 549,640 L 549,641 L 550,641 L 558,649 L 558,650 L 559,650 L 575,666 L 575,667 L 582,674 L 577,679 L 576,679 L 566,689 L 565,689 L 554,700 L 553,700 L 547,706 L 546,706 L 543,709 L 542,709 L 539,712 L 538,712 L 535,715 L 534,715 L 532,717 L 531,717 L 529,719 L 528,719 L 526,721 L 525,721 L 524,722 L 523,722 L 522,723 L 521,723 L 520,724 L 519,724 L 518,725 L 517,725 L 516,726 L 515,726 L 516,726 L 517,725 L 518,725 L 519,724 L 520,724 L 521,723 L 522,723 L 523,722 L 524,722 L 525,721 L 526,721 L 528,719 L 529,719 L 531,717 L 532,717 L 534,715 L 535,715 L 537,713 L 538,713 L 542,709 L 543,709 L 546,706 L 547,706 L 552,701 L 553,701 L 564,690 L 565,690 L 576,679 L 577,679 L 582,674 L 582,673 L 572,663 L 572,662 L 520,610 L 519,610 L 518,609 L 518,608 L 511,601 Z" fill="white"/><path d="M 366,598 L 364,600 L 364,601 L 344,621 L 344,622 L 318,648 L 318,649 L 299,668 L 299,669 L 283,685 L 283,686 L 269,700 L 269,701 L 255,715 L 255,716 L 254,717 L 253,717 L 252,718 L 252,719 L 236,735 L 236,736 L 235,737 L 234,737 L 241,737 L 237,737 L 236,736 L 243,729 L 243,728 L 257,714 L 257,713 L 269,701 L 269,700 L 271,698 L 272,698 L 273,697 L 273,696 L 288,681 L 288,680 L 303,665 L 303,664 L 304,663 L 305,663 L 305,662 L 306,661 L 307,661 L 307,660 L 321,646 L 321,645 L 322,644 L 323,644 L 323,643 L 349,617 L 349,616 L 365,600 L 366,601 L 367,601 L 368,602 L 369,602 L 370,603 L 369,604 L 370,603 L 371,604 L 371,605 L 372,606 L 373,606 L 374,607 L 373,608 L 375,610 L 376,610 L 379,613 L 379,614 L 380,615 L 381,615 L 384,618 L 384,619 L 385,620 L 386,620 L 389,623 L 389,624 L 390,625 L 391,625 L 398,632 L 398,633 L 399,633 L 400,634 L 400,635 L 402,637 L 403,637 L 405,639 L 405,640 L 406,641 L 407,641 L 412,646 L 412,647 L 414,649 L 414,650 L 411,653 L 411,654 L 409,656 L 409,657 L 406,660 L 406,661 L 404,663 L 404,664 L 403,665 L 404,664 L 404,663 L 406,661 L 406,660 L 409,657 L 409,656 L 412,653 L 412,652 L 415,649 L 415,648 L 412,645 L 411,645 L 410,644 L 410,643 L 408,641 L 407,641 L 406,640 L 406,639 L 366,599 Z" fill="white"/><path d="M 535,575 L 536,576 L 536,577 L 539,580 L 540,580 L 541,581 L 541,582 L 559,600 L 560,600 L 561,601 L 561,602 L 562,603 L 563,603 L 594,634 L 595,634 L 606,645 L 589,628 L 588,628 L 548,588 L 547,588 L 546,587 L 546,586 Z" fill="white"/><path d="M 541,570 L 537,574 Z" fill="white"/><path d="M 593,514 L 593,515 L 578,530 L 578,531 L 558,551 L 558,552 L 543,567 L 543,568 L 543,567 L 562,548 L 562,547 L 563,546 L 564,546 L 564,545 L 589,520 L 589,519 L 590,518 L 591,518 L 593,516 L 594,517 L 594,520 L 595,521 L 595,525 L 596,526 L 596,529 L 597,530 L 597,533 L 598,534 L 598,536 L 599,537 L 599,539 L 600,540 L 600,541 L 601,542 L 601,544 L 602,545 L 602,546 L 603,547 L 603,548 L 604,549 L 604,551 L 605,552 L 605,553 L 606,554 L 606,555 L 607,556 L 607,557 L 608,558 L 608,559 L 609,560 L 609,561 L 611,563 L 611,564 L 613,566 L 613,567 L 614,568 L 614,569 L 617,572 L 617,573 L 618,574 L 618,575 L 619,575 L 620,576 L 620,578 L 621,578 L 623,580 L 623,581 L 624,582 L 624,583 L 626,585 L 627,585 L 628,586 L 628,587 L 629,587 L 631,589 L 631,590 L 637,596 L 638,596 L 640,598 L 640,599 L 641,599 L 645,603 L 646,603 L 648,605 L 620,633 L 620,634 L 610,644 L 610,645 L 609,646 L 608,646 L 608,647 L 612,643 L 612,642 L 622,632 L 622,631 L 623,630 L 624,630 L 630,624 L 630,623 L 631,622 L 632,622 L 638,616 L 638,615 L 639,614 L 640,614 L 645,609 L 645,608 L 648,605 L 649,605 L 644,600 L 643,600 L 625,582 L 625,581 L 620,576 L 620,575 L 616,571 L 616,570 L 614,568 L 614,567 L 612,565 L 612,564 L 610,562 L 610,561 L 609,560 L 609,559 L 608,558 L 608,557 L 607,556 L 607,555 L 606,554 L 606,553 L 605,552 L 605,551 L 604,550 L 604,549 L 603,548 L 603,547 L 602,546 L 602,544 L 601,543 L 601,542 L 600,541 L 600,539 L 599,538 L 599,537 L 598,536 L 598,533 L 597,532 L 597,530 L 596,529 L 596,525 L 595,524 L 595,519 L 594,518 L 594,516 L 593,515 Z" fill="white"/><path d="M 631,512 L 631,518 L 632,519 L 632,522 L 633,523 L 633,525 L 634,526 L 634,528 L 634,526 L 633,525 L 633,523 L 632,522 L 632,519 L 631,518 Z" fill="white"/><path d="M 517,441 L 517,442 L 513,446 L 512,446 L 512,447 L 473,486 L 473,487 L 470,490 L 469,490 L 468,491 L 468,492 L 467,493 L 466,493 L 464,495 L 464,496 L 400,560 L 400,561 L 399,562 L 398,562 L 392,568 L 392,569 L 391,570 L 390,570 L 389,571 L 395,577 L 395,578 L 396,579 L 397,579 L 401,583 L 401,584 L 407,590 L 408,590 L 409,591 L 409,592 L 438,621 L 438,622 L 439,622 L 444,617 L 444,616 L 486,574 L 486,573 L 487,572 L 488,572 L 492,568 L 492,567 L 496,563 L 497,563 L 497,562 L 536,523 L 535,524 L 534,524 L 534,525 L 483,576 L 483,577 L 482,578 L 481,578 L 480,579 L 480,580 L 479,581 L 478,581 L 477,582 L 477,583 L 439,621 L 438,621 L 420,603 L 420,602 L 419,602 L 416,599 L 416,598 L 415,597 L 414,597 L 412,595 L 412,594 L 411,593 L 410,593 L 409,592 L 409,591 L 408,590 L 407,590 L 405,588 L 405,587 L 389,571 L 390,570 L 391,570 L 419,542 L 419,541 L 420,540 L 421,540 L 421,539 L 422,538 L 423,538 L 423,537 L 425,535 L 426,535 L 426,534 L 484,476 L 484,475 L 485,474 L 486,474 L 486,473 L 487,472 L 488,472 L 488,471 L 517,442 L 519,444 L 520,444 L 521,445 L 521,446 L 523,448 L 524,448 L 525,449 L 525,450 L 531,456 L 532,456 L 533,457 L 533,458 L 534,459 L 535,459 L 536,460 L 536,461 L 537,462 L 538,462 L 539,463 L 539,464 L 541,466 L 542,466 L 545,469 L 545,470 L 546,471 L 548,471 L 549,472 L 548,473 L 549,474 L 550,473 L 551,474 L 551,475 L 552,475 L 554,477 L 553,478 L 556,481 L 558,481 L 559,482 L 559,483 L 562,486 L 563,486 L 564,487 L 564,488 L 565,488 L 567,490 L 567,491 L 537,521 L 568,490 L 566,488 L 565,488 L 564,487 L 564,486 L 563,485 L 562,485 L 559,482 L 559,481 L 558,481 L 547,470 L 547,469 L 546,469 L 518,441 Z" fill="white"/><path d="M 671,425 L 670,426 L 670,427 L 654,443 L 654,444 L 647,451 L 647,452 L 644,455 L 644,456 L 642,458 L 642,459 L 641,460 L 641,461 L 639,463 L 639,464 L 638,465 L 638,466 L 637,467 L 637,468 L 636,469 L 636,470 L 635,471 L 635,473 L 634,474 L 634,475 L 633,476 L 633,478 L 632,479 L 632,482 L 631,483 L 631,488 L 630,489 L 630,510 L 630,489 L 631,488 L 631,483 L 632,482 L 632,479 L 633,478 L 633,476 L 634,475 L 634,474 L 635,473 L 635,472 L 636,471 L 636,470 L 637,469 L 637,468 L 638,467 L 638,466 L 639,465 L 639,464 L 640,463 L 640,462 L 641,461 L 641,460 L 643,458 L 643,457 L 646,454 L 646,453 L 649,450 L 649,449 L 661,437 L 661,436 L 671,426 L 672,427 L 672,428 L 673,428 L 680,435 L 681,435 L 686,440 L 686,441 L 688,443 L 689,442 L 691,444 L 690,445 L 691,445 L 695,449 L 696,449 L 698,451 L 698,452 L 699,452 L 700,453 L 700,455 L 701,454 L 702,455 L 702,456 L 703,456 L 704,457 L 703,458 L 704,458 L 705,459 L 706,459 L 707,460 L 706,461 L 708,461 L 710,463 L 710,464 L 711,465 L 712,465 L 714,467 L 714,468 L 715,468 L 718,471 L 718,472 L 719,472 L 727,480 L 726,481 L 728,481 L 735,488 L 735,489 L 736,489 L 738,491 L 738,492 L 739,492 L 740,493 L 740,494 L 741,494 L 744,497 L 744,498 L 749,503 L 740,512 L 739,512 L 697,554 L 697,555 L 696,556 L 695,556 L 695,557 L 692,560 L 691,560 L 691,561 L 676,576 L 675,576 L 674,575 L 673,575 L 671,573 L 670,573 L 667,570 L 666,570 L 661,565 L 660,565 L 650,555 L 650,554 L 645,549 L 645,548 L 643,546 L 643,545 L 641,543 L 641,542 L 640,541 L 640,540 L 639,539 L 639,538 L 638,537 L 638,536 L 637,535 L 637,534 L 636,533 L 636,532 L 635,531 L 635,530 L 635,531 L 636,532 L 636,533 L 637,534 L 637,535 L 638,536 L 638,537 L 639,538 L 639,539 L 640,540 L 640,541 L 641,542 L 641,543 L 643,545 L 643,546 L 645,548 L 645,549 L 649,553 L 649,554 L 661,566 L 662,566 L 666,570 L 667,570 L 670,573 L 671,573 L 673,575 L 674,575 L 675,576 L 676,576 L 710,542 L 710,541 L 711,540 L 712,540 L 716,536 L 716,535 L 717,534 L 718,534 L 724,528 L 724,527 L 733,518 L 734,518 L 734,517 L 735,516 L 736,516 L 747,505 L 748,505 L 749,504 L 749,502 L 710,463 L 710,462 L 709,461 L 708,461 L 707,460 L 707,459 L 706,458 L 705,458 L 703,456 L 703,455 L 697,449 L 696,449 L 695,448 L 695,447 L 694,447 L 672,425 Z" fill="white"/><path d="M 439,362 L 435,366 L 435,367 L 423,379 L 423,380 L 421,382 L 420,382 L 419,383 L 419,384 L 416,387 L 415,387 L 414,388 L 414,389 L 413,390 L 412,390 L 412,391 L 388,415 L 393,420 L 394,420 L 402,428 L 403,428 L 404,429 L 404,430 L 405,430 L 435,460 L 436,460 L 441,465 L 489,417 L 489,416 L 485,412 L 485,411 L 469,395 L 469,394 L 452,377 L 452,376 L 444,368 L 444,367 L 441,364 L 441,363 L 440,362 Z" fill="white"/><path d="M 600,355 L 600,356 L 565,391 L 565,392 L 564,393 L 563,393 L 562,394 L 562,395 L 544,413 L 544,414 L 545,414 L 546,415 L 546,416 L 547,416 L 555,424 L 555,425 L 556,425 L 557,426 L 557,427 L 558,428 L 559,428 L 563,432 L 563,433 L 564,434 L 565,434 L 566,435 L 566,436 L 567,436 L 568,437 L 568,438 L 569,438 L 570,439 L 570,440 L 573,443 L 574,443 L 575,444 L 575,445 L 576,445 L 579,448 L 579,449 L 580,449 L 582,451 L 582,452 L 583,452 L 584,453 L 584,454 L 587,457 L 588,457 L 589,458 L 589,459 L 590,460 L 591,460 L 596,465 L 597,464 L 597,462 L 598,461 L 598,460 L 599,459 L 599,458 L 600,457 L 600,456 L 601,455 L 601,454 L 602,453 L 602,452 L 604,450 L 604,449 L 605,448 L 605,447 L 607,445 L 605,447 L 605,448 L 604,449 L 604,450 L 602,452 L 602,453 L 601,454 L 601,455 L 600,456 L 600,457 L 599,458 L 599,459 L 598,460 L 598,461 L 597,462 L 597,463 L 596,464 L 595,464 L 544,413 L 548,409 L 549,409 L 551,407 L 551,406 L 572,385 L 572,384 L 574,382 L 575,382 L 575,381 L 582,374 L 583,374 L 583,373 L 600,356 L 601,357 L 601,358 L 607,364 L 608,364 L 609,365 L 609,366 L 610,367 L 611,367 L 617,373 L 617,374 L 619,376 L 620,376 L 626,382 L 626,383 L 627,384 L 628,384 L 636,392 L 637,392 L 638,393 L 638,394 L 639,394 L 641,396 L 641,397 L 644,400 L 642,402 L 642,403 L 634,411 L 634,412 L 626,420 L 626,421 L 620,427 L 620,428 L 616,432 L 616,433 L 612,437 L 612,438 L 609,441 L 609,442 L 608,443 L 610,441 L 610,440 L 613,437 L 613,436 L 616,433 L 616,432 L 620,428 L 620,427 L 628,419 L 628,418 L 637,409 L 637,408 L 643,402 L 643,401 L 645,399 L 609,363 L 608,363 L 601,356 L 601,355 Z" fill="white"/><path d="M 338,255 L 337,256 L 242,256 L 246,260 L 246,261 L 254,269 L 254,270 L 255,270 L 256,271 L 256,272 L 267,283 L 267,284 L 283,300 L 283,301 L 295,313 L 295,314 L 311,330 L 311,331 L 312,331 L 313,332 L 313,333 L 329,349 L 329,350 L 344,365 L 344,366 L 345,367 L 346,367 L 347,368 L 347,369 L 361,383 L 361,384 L 364,387 L 365,387 L 371,381 L 372,381 L 372,380 L 375,377 L 376,377 L 378,375 L 378,374 L 379,373 L 380,373 L 380,372 L 415,337 L 415,336 L 414,335 L 414,334 L 411,331 L 411,330 L 409,328 L 409,327 L 407,325 L 407,324 L 405,322 L 405,321 L 402,318 L 402,317 L 401,316 L 401,315 L 400,314 L 400,313 L 399,312 L 399,311 L 398,310 L 398,309 L 397,308 L 397,307 L 396,306 L 396,305 L 395,304 L 395,303 L 394,302 L 394,301 L 393,300 L 393,299 L 392,298 L 392,295 L 391,294 L 391,293 L 390,292 L 390,289 L 389,288 L 389,285 L 388,284 L 388,281 L 387,280 L 387,277 L 386,276 L 386,273 L 385,272 L 385,269 L 384,268 L 384,262 L 383,261 L 383,258 L 382,257 L 382,255 L 346,255 L 345,256 L 344,255 L 341,255 L 340,256 L 339,256 Z" fill="white"/><path d="M 428,251 L 427,252 L 423,252 L 424,253 L 423,254 L 423,256 L 424,257 L 424,267 L 425,268 L 425,272 L 426,273 L 426,276 L 427,277 L 427,279 L 428,280 L 428,282 L 429,283 L 429,285 L 430,286 L 430,287 L 431,288 L 431,290 L 432,291 L 432,292 L 433,293 L 433,295 L 434,296 L 434,297 L 436,299 L 436,301 L 438,303 L 438,304 L 439,305 L 439,306 L 441,308 L 441,309 L 443,311 L 443,312 L 446,315 L 446,316 L 450,320 L 450,321 L 460,331 L 460,332 L 461,332 L 462,333 L 462,334 L 494,366 L 495,366 L 497,368 L 497,369 L 500,372 L 501,372 L 503,374 L 503,375 L 504,375 L 511,382 L 512,382 L 515,385 L 516,385 L 518,383 L 519,383 L 522,380 L 523,380 L 529,374 L 530,374 L 537,367 L 538,367 L 545,360 L 546,360 L 565,341 L 566,341 L 577,330 L 578,330 L 578,329 L 557,308 L 556,308 L 546,298 L 545,298 L 536,289 L 535,289 L 530,284 L 529,284 L 527,282 L 526,282 L 522,278 L 521,278 L 519,276 L 518,276 L 516,274 L 515,274 L 514,273 L 513,273 L 511,271 L 510,271 L 508,269 L 507,269 L 506,268 L 505,268 L 504,267 L 503,267 L 502,266 L 501,266 L 500,265 L 498,265 L 497,264 L 496,264 L 495,263 L 494,263 L 493,262 L 492,262 L 491,261 L 489,261 L 488,260 L 486,260 L 485,259 L 484,259 L 483,258 L 481,258 L 480,257 L 477,257 L 476,256 L 473,256 L 472,255 L 469,255 L 468,254 L 463,254 L 462,253 L 456,253 L 455,252 L 438,252 L 437,251 Z" fill="white"/>
</svg>