<?xml version="1.0" encoding="UTF-8"?>
<svg version="1.1" xmlns="http://www.w3.org/2000/svg" width="695" height="631">
<!-- <path d="M0 0 C229.35 0 458.7 0 695 0 C695 208.23 695 416.46 695 631 C465.65 631 236.3 631 0 631 C0 422.77 0 214.54 0 0 Z " fill="#FDFDFD" transform="translate(0,0)"/> -->
<path d="M0 0 C0.83917969 0.70640625 1.67835938 1.4128125 2.54296875 2.140625 C3.51234375 2.95402344 4.48171875 3.76742187 5.48046875 4.60546875 C10.3080772 8.73004186 15.10780063 12.88669478 19.89453125 17.05859375 C22.96560266 19.73277151 26.0582176 22.3802164 29.15966797 25.01904297 C34.68569949 29.72253828 40.09115797 34.52291053 45.4074707 39.46191406 C48.5465403 42.3591954 51.77272131 45.09456173 55.10546875 47.765625 C60.83073944 52.37235511 66.15226938 57.35875367 71.5078125 62.3828125 C74.55183888 65.23609278 77.66013752 68.00250509 80.8203125 70.7265625 C83.09251386 72.70602626 85.31506747 74.7364567 87.54296875 76.765625 C90.94130427 79.83809273 94.40637398 82.77505122 97.98046875 85.640625 C103.73993301 90.29721312 109.10995574 95.31896677 114.5078125 100.3828125 C117.55183888 103.23609278 120.66013752 106.00250509 123.8203125 108.7265625 C126.09251386 110.70602626 128.31506747 112.7364567 130.54296875 114.765625 C134.80654589 118.61450771 139.20480545 122.25354676 143.66796875 125.8671875 C149.22733001 130.44798772 154.63635151 135.20266939 160.06103516 139.94140625 C161.50708372 141.19670667 162.96715809 142.43581541 164.4296875 143.671875 C165.14769531 144.2803125 165.86570312 144.88875 166.60546875 145.515625 C167.20101562 146.01320313 167.7965625 146.51078125 168.41015625 147.0234375 C169.73046875 148.390625 169.73046875 148.390625 170.73046875 151.390625 C170.01761719 151.95910156 169.30476562 152.52757812 168.5703125 153.11328125 C162.16920158 158.24464778 162.16920158 158.24464778 156.23046875 163.890625 C153.56005031 166.65551579 150.73450883 169.05431065 147.73046875 171.453125 C142.26735107 175.84622515 137.17238587 180.56575188 132.07275391 185.37280273 C128.38115664 188.85238578 124.64911989 192.25569116 120.8046875 195.56640625 C117.96457614 198.06420664 115.19291198 200.63334725 112.41796875 203.203125 C104.65426854 210.39215202 96.872903 217.55471264 88.87890625 224.48828125 C86.71042357 226.40837409 84.58279249 228.36913797 82.45874023 230.33813477 C77.29501932 235.12220642 72.00895858 239.65339942 66.5234375 244.0703125 C62.37940086 247.51305063 58.44979778 251.17414581 54.5 254.8359375 C52.27128482 256.89176222 50.02278956 258.90679457 47.73046875 260.890625 C44.33996158 263.82906455 41.03075798 266.85174482 37.73046875 269.890625 C33.82876334 273.48328444 29.89030402 277.02241306 25.87890625 280.4921875 C22.45414502 283.51843106 19.10814784 286.63137017 15.765625 289.74804688 C11.13013328 294.03859991 8.92754303 294.6089945 2.76763916 294.54217529 C-3.04629537 294.25206859 -8.77437663 293.34915305 -14.52734375 292.4921875 C-15.88386835 292.29469238 -17.24046786 292.09771122 -18.59713745 291.9012146 C-21.42333975 291.49033788 -24.24878312 291.07468981 -27.07373047 290.65527344 C-30.67445863 290.12086995 -34.27654626 289.59640411 -37.87921333 289.07525063 C-40.67482618 288.67008837 -43.46981091 288.26072436 -46.26461411 287.85001755 C-48.23174336 287.5613785 -50.19925703 287.27536322 -52.16677856 286.9894104 C-57.53459022 286.18968068 -62.73698301 285.31220555 -67.98269653 283.90292358 C-73.2982498 282.71212899 -78.74806892 282.11438203 -84.14382553 281.38833618 C-86.49172432 281.0724055 -88.83883177 280.75107687 -91.18582153 280.4284668 C-95.32752829 279.86005635 -99.46986215 279.29637379 -103.61242676 278.73425293 C-110.23398576 277.83565154 -116.85496137 276.9328735 -123.47516251 276.02432251 C-125.77116068 275.71037988 -128.06766084 275.40033009 -130.36422729 275.09057617 C-136.90011332 274.20087945 -143.38551205 273.23845692 -149.84280396 271.87536621 C-154.82861138 270.87944618 -159.86657222 270.18442266 -164.89453125 269.4375 C-166.09961838 269.25665359 -167.30470551 269.07580719 -168.54631042 268.88948059 C-171.7853087 268.4041465 -175.02463797 267.92110663 -178.26415634 267.43925858 C-180.27711799 267.13949521 -182.28990843 266.83860829 -184.30264282 266.537323 C-197.94580619 264.49511556 -211.59126577 262.47105603 -225.25 260.53515625 C-226.22325226 260.39715607 -227.19650452 260.25915588 -228.19924927 260.11697388 C-232.66123679 259.48577288 -237.12393493 258.86028984 -241.58789062 258.24316406 C-243.16276156 258.02279462 -244.73763142 257.80241751 -246.3125 257.58203125 C-246.99426804 257.48968704 -247.67603607 257.39734283 -248.37846375 257.30220032 C-251.78862918 256.82248245 -255.13112365 256.21535123 -258.48193359 255.43334961 C-264.21398396 254.12263904 -270.00891372 253.33476495 -275.828125 252.515625 C-277.01245621 252.34562988 -278.19678741 252.17563477 -279.41700745 252.00048828 C-283.17988933 251.46059431 -286.94338366 250.92515317 -290.70703125 250.390625 C-294.46707155 249.85585513 -298.22694256 249.3200097 -301.98634338 248.78076172 C-304.31777949 248.44638495 -306.64957922 248.11453018 -308.98179626 247.78564453 C-313.75415765 247.10160031 -318.49100676 246.3790769 -323.2109375 245.39282227 C-329.39629145 244.11185909 -335.63966321 243.31328795 -341.8984375 242.48046875 C-343.83957442 242.21719009 -345.78071073 241.95390678 -347.72180843 241.69033909 C-351.77976269 241.14029045 -355.83841937 240.59545224 -359.89715576 240.0512085 C-364.54404972 239.42808073 -369.19009064 238.79886746 -373.8359375 238.16796875 C-375.68415855 237.92263649 -375.68415855 237.92263649 -377.56971741 237.67234802 C-378.69856857 237.51871292 -379.82741974 237.36507782 -380.99047852 237.20678711 C-381.98845963 237.07292099 -382.98644073 236.93905487 -384.0146637 236.8011322 C-386.26953125 236.390625 -386.26953125 236.390625 -387.26953125 235.390625 C-389.50860838 234.99025816 -391.75829128 234.64912593 -394.01049805 234.33081055 C-394.716577 234.22980042 -395.42265594 234.12879028 -396.15013123 234.02471924 C-397.69239648 233.80462961 -399.23493947 233.58647975 -400.77771568 233.37000084 C-403.24177626 233.02411147 -405.70504244 232.67299924 -408.16816711 232.32051086 C-414.30677024 231.44314922 -420.44662629 230.57468747 -426.58648682 229.70617676 C-463.38398821 224.49873127 -463.38398821 224.49873127 -476.5390625 222.28515625 C-477.41237717 222.14977951 -478.28569183 222.01440277 -479.18547058 221.87492371 C-482.42992829 221.29957452 -484.74962044 220.87947466 -487.19018555 218.5847168 C-489.27639028 214.34388397 -490.55926195 210.52437103 -491.26953125 205.83984375 C-491.43356445 204.76081787 -491.59759766 203.68179199 -491.76660156 202.57006836 C-491.93256836 201.41772705 -492.09853516 200.26538574 -492.26953125 199.078125 C-492.53008301 197.28290405 -492.53008301 197.28290405 -492.79589844 195.45141602 C-494.43491539 183.79609895 -495.61992083 172.14266799 -496.26953125 160.390625 C-496.31094238 159.65247559 -496.35235352 158.91432617 -496.39501953 158.15380859 C-496.87850846 147.88392058 -496.0288617 137.64291427 -495.20248413 127.41033936 C-495.08259995 125.92305565 -494.96643486 124.43546642 -494.85440063 122.9475708 C-493.3184448 102.99570533 -493.3184448 102.99570533 -489.26953125 94.390625 C-485.55047324 91.32848628 -481.45401324 90.60999459 -476.80859375 89.85546875 C-476.09980072 89.73128067 -475.39100769 89.60709259 -474.66073608 89.47914124 C-472.4068825 89.08577137 -470.15099411 88.70621282 -467.89453125 88.328125 C-465.64567551 87.94421527 -463.39739893 87.55730938 -461.14974976 87.16639709 C-459.75586224 86.9247071 -458.36122081 86.68730927 -456.96572876 86.45506287 C-452.62878231 85.71234493 -448.49463987 84.60366228 -444.26953125 83.390625 C-442.00388136 82.9496386 -439.73108985 82.54405045 -437.453125 82.171875 C-435.5649707 81.85669922 -435.5649707 81.85669922 -433.63867188 81.53515625 C-431.01377403 81.10484513 -428.38877359 80.67515941 -425.76367188 80.24609375 C-424.50619141 80.03597656 -423.24871094 79.82585937 -421.953125 79.609375 C-420.81415771 79.42310547 -419.67519043 79.23683594 -418.50170898 79.04492188 C-415.27468335 78.46004456 -415.27468335 78.46004456 -412.27172852 77.390625 C-409.03520608 76.31257378 -405.9167322 75.7192919 -402.55078125 75.171875 C-401.28878906 74.96175781 -400.02679688 74.75164062 -398.7265625 74.53515625 C-396.74546182 74.21160102 -394.76408994 73.88974107 -392.78271484 73.56787109 C-390.85058902 73.25231449 -388.91942232 72.93090308 -386.98828125 72.609375 C-385.84294922 72.42310547 -384.69761719 72.23683594 -383.51757812 72.04492188 C-380.3118209 71.39914396 -377.36001828 70.44712923 -374.26953125 69.390625 C-372.8633287 69.09065172 -371.44874086 68.82621562 -370.02734375 68.609375 C-369.27066406 68.48949219 -368.51398438 68.36960937 -367.734375 68.24609375 C-366.96222656 68.12878906 -366.19007813 68.01148438 -365.39453125 67.890625 C-360.33964567 67.11491743 -355.43912954 66.2009615 -350.484375 64.90820312 C-344.73710748 63.56514678 -338.85274847 62.80640377 -333.02539062 61.890625 C-327.62953154 61.02131101 -322.52742394 59.8936965 -317.26953125 58.390625 C-312.80393588 57.50059058 -308.31863619 56.72924598 -303.83203125 55.953125 C-301.31893903 55.51082207 -298.80591774 55.06811596 -296.29296875 54.625 C-295.08479492 54.41294922 -293.87662109 54.20089844 -292.63183594 53.98242188 C-288.40394348 53.23827351 -284.1786563 52.482013 -279.95703125 51.703125 C-278.80589844 51.49300781 -277.65476562 51.28289062 -276.46875 51.06640625 C-273.25167936 50.43055735 -273.25167936 50.43055735 -270.08984375 49.453125 C-264.93190415 48.01860601 -259.71679265 47.06295644 -254.45703125 46.078125 C-252.13800602 45.63809889 -249.81899606 45.19799231 -247.5 44.7578125 C-246.31067871 44.53319336 -245.12135742 44.30857422 -243.89599609 44.07714844 C-238.01820896 42.96442881 -232.14394565 41.83348994 -226.26953125 40.703125 C-224.68821411 40.39991333 -224.68821411 40.39991333 -223.07495117 40.09057617 C-222.0666626 39.8969751 -221.05837402 39.70337402 -220.01953125 39.50390625 C-219.05515137 39.31892578 -218.09077148 39.13394531 -217.09716797 38.94335938 C-213.53734421 38.2475002 -209.98663537 37.50972279 -206.43798828 36.7590332 C-203.33253375 36.23143459 -200.41151882 36.25401684 -197.26953125 36.390625 C-197.26953125 35.730625 -197.26953125 35.070625 -197.26953125 34.390625 C-195.33400391 34.10058594 -195.33400391 34.10058594 -193.359375 33.8046875 C-191.6418909 33.54190305 -189.92444498 33.27886896 -188.20703125 33.015625 C-187.35947266 32.88929688 -186.51191406 32.76296875 -185.63867188 32.6328125 C-180.71044667 31.87169664 -176.06301314 30.7927612 -171.26953125 29.390625 C-168.03665593 28.8364178 -164.80064633 28.39485423 -161.55078125 27.953125 C-158.27387157 27.45888449 -158.27387157 27.45888449 -155.19335938 26.47265625 C-150.59501943 25.136242 -145.91926886 24.34094875 -141.20703125 23.515625 C-140.25691162 23.34562988 -139.30679199 23.17563477 -138.32788086 23.00048828 C-134.2901701 22.27817748 -130.25098233 21.56428322 -126.21191406 20.84960938 C-123.25142538 20.32453076 -120.29172335 19.79517222 -117.33203125 19.265625 C-116.42767334 19.10723145 -115.52331543 18.94883789 -114.59155273 18.78564453 C-109.71063711 17.91187491 -105.0376266 16.76865125 -100.26953125 15.390625 C-97.6329138 14.87573568 -95.00774709 14.39395563 -92.359375 13.953125 C-90.86002211 13.69533539 -89.36067327 13.43752218 -87.86132812 13.1796875 C-85.52911469 12.78348895 -83.19664104 12.3888711 -80.86401367 11.99511719 C-78.59094839 11.61002194 -76.31890476 11.21927623 -74.046875 10.828125 C-73.3560936 10.713479 -72.66531219 10.59883301 -71.95359802 10.48071289 C-67.89728423 9.78055487 -64.16222733 8.70342913 -60.26953125 7.390625 C-58.05241535 6.93140949 -55.82601561 6.51549578 -53.59375 6.13671875 C-52.35431641 5.92208984 -51.11488281 5.70746094 -49.83789062 5.48632812 C-48.55720703 5.26912109 -47.27652344 5.05191406 -45.95703125 4.828125 C-43.39782319 4.39292006 -40.83919089 3.95431072 -38.28125 3.51171875 C-37.15162842 3.3202124 -36.02200684 3.12870605 -34.8581543 2.93139648 C-32.35046746 2.65408435 -32.35046746 2.65408435 -31.26953125 1.390625 C-27.19433385 0.52764202 -23.06948152 -0.07510989 -18.95703125 -0.734375 C-17.80267578 -0.92902344 -16.64832031 -1.12367188 -15.45898438 -1.32421875 C-14.34845703 -1.50339844 -13.23792969 -1.68257812 -12.09375 -1.8671875 C-11.07369873 -2.0336377 -10.05364746 -2.20008789 -9.00268555 -2.37158203 C-5.15946727 -2.70595404 -3.13552434 -2.22346993 0 0 Z " fill="#010101" transform="translate(509.26953125,160.609375)"/>
<path d="M0 0 C2.61328125 2.0390625 2.61328125 2.0390625 5.3125 4.625 C6.28986153 5.54610699 7.26772823 6.46667824 8.24609375 7.38671875 C9.15488281 8.24910156 10.06367188 9.11148437 11 10 C16.30268066 14.77343038 21.77222815 19.35437913 27.22436523 23.95507812 C30.77747739 26.95605569 34.29640311 29.99069788 37.78515625 33.06640625 C40.79443474 35.69355414 43.83668075 38.28154872 46.875 40.875 C51.03174128 44.42440375 55.14574014 48.00672667 59.1875 51.6875 C62.52227114 54.71712868 65.93287639 57.60608092 69.4375 60.4375 C74.26873773 64.34752714 78.87146686 68.45794837 83.44921875 72.66015625 C91.31783972 79.87807962 99.50511397 86.71560288 107.92578125 93.28125 C109.29283203 94.34859375 109.29283203 94.34859375 110.6875 95.4375 C111.51636719 96.07558594 112.34523438 96.71367188 113.19921875 97.37109375 C113.79347656 97.90863281 114.38773437 98.44617188 115 99 C115 99.66 115 100.32 115 101 C106.49802416 104.21066176 97.88097228 106.26799821 89.00732422 108.16088867 C88.10385254 108.35658447 87.20038086 108.55228027 86.26953125 108.75390625 C85.07227417 109.00636108 85.07227417 109.00636108 83.85083008 109.26391602 C81.45890576 109.88151059 79.18835826 110.60187256 76.85546875 111.40429688 C71.6540497 113.16671837 66.37700203 114.48253832 61.04296875 115.77734375 C58.9394411 116.29617522 56.83592587 116.815057 54.73242188 117.33398438 C51.46155212 118.13620848 48.19029482 118.93681721 44.91870117 119.73608398 C29.45567895 123.45997191 29.45567895 123.45997191 14.28637695 128.2019043 C11.06015047 129.32806921 7.82309556 130.13981003 4.5 130.9375 C3.1445067 131.26812854 1.78903927 131.59886314 0.43359375 131.9296875 C-0.27555176 132.10081055 -0.98469727 132.27193359 -1.71533203 132.44824219 C-5.9593155 133.4731837 -10.19882869 134.51584149 -14.4375 135.5625 C-15.25347656 135.76029053 -16.06945312 135.95808105 -16.91015625 136.16186523 C-17.70164062 136.35723877 -18.493125 136.5526123 -19.30859375 136.75390625 C-19.99751709 136.92220947 -20.68644043 137.0905127 -21.39624023 137.26391602 C-23.69423581 137.91356033 -25.93082095 138.64583668 -28.19042969 139.41577148 C-32.95884229 141.02116087 -37.77474256 142.33507414 -42.64453125 143.59375 C-43.53557053 143.82654663 -44.4266098 144.05934326 -45.34465027 144.29919434 C-48.16653595 145.035635 -50.98950695 145.76781718 -53.8125 146.5 C-55.69342847 146.9906206 -57.57428842 147.48150397 -59.45507812 147.97265625 C-67.84717283 150.16088871 -76.23944989 152.34082976 -84.66821289 154.38452148 C-87.03142139 155.00829372 -89.31923011 155.75354568 -91.625 156.5625 C-94.65428477 157.6156922 -97.59556561 158.35935608 -100.75 158.9375 C-104.5488802 159.64507769 -108.13503133 160.62621978 -111.8125 161.8125 C-117.12793045 163.49073579 -122.44956366 164.86869133 -127.875 166.125 C-137.83659053 168.44255945 -147.7541094 170.92396069 -157.66436768 173.45062256 C-159.4179619 173.89719555 -161.17198602 174.34208409 -162.92645264 174.78521729 C-165.42741898 175.41734142 -167.9267611 176.05554316 -170.42578125 176.6953125 C-171.17097519 176.88270996 -171.91616913 177.07010742 -172.6839447 177.26318359 C-176.98907561 178.37405176 -181.09984231 179.73422599 -185.24543762 181.3394165 C-187.27644706 182.10408086 -189.30587673 182.67967984 -191.41796875 183.17578125 C-192.18560547 183.36060059 -192.95324219 183.54541992 -193.74414062 183.73583984 C-194.55044922 183.9261377 -195.35675781 184.11643555 -196.1875 184.3125 C-203.17719654 186.00811023 -210.09849021 187.85096738 -217 189.875 C-226.73252889 192.72413588 -236.54901423 195.18116739 -246.40820312 197.55224609 C-253.22136535 199.17998438 -253.22136535 199.17998438 -259.8359375 201.44921875 C-266.26002702 204.01260035 -273.11581577 205.44027059 -279.8125 207.125 C-281.9394043 207.66401164 -284.06597867 208.20429391 -286.19230652 208.74557495 C-288.10784346 209.23259431 -290.02423646 209.716243 -291.94067383 210.19970703 C-293.97912057 210.73294687 -296.00108809 211.33369603 -298 212 C-300.6928496 212.17812624 -303.29441368 212.08727698 -306 212 C-307 211 -307 211 -307.0546875 209.12890625 C-305.49440051 186.84393778 -295.10265639 165.03219921 -283.421875 146.30859375 C-282.28809287 144.46775518 -281.21025953 142.59249214 -280.15234375 140.70703125 C-272.69078702 127.59219426 -263.20909289 113.03472874 -251 104 C-250.01 104 -249.02 104 -248 104 C-248 103.34 -248 102.68 -248 102 C-243.545 101.01 -243.545 101.01 -239 100 C-239 99.34 -239 98.68 -239 98 C-238.40574219 97.76925781 -237.81148438 97.53851563 -237.19921875 97.30078125 C-231.79610926 95.17482993 -226.49453553 92.89566449 -221.21875 90.47265625 C-210.19580029 85.42938921 -199.09424933 80.59203891 -187.90307617 75.93481445 C-182.97534457 73.87089887 -178.12978656 71.68373678 -173.3125 69.375 C-167.46290298 66.59612419 -161.54997978 64.21979046 -155.45239258 62.04052734 C-152.44241347 60.95791271 -149.6269339 59.80598749 -146.78515625 58.328125 C-144 57 -144 57 -140 57 C-140 56.34 -140 55.68 -140 55 C-138.99582031 54.63648438 -137.99164063 54.27296875 -136.95703125 53.8984375 C-128.0857979 50.65063067 -119.53347255 47.06298763 -111 43 C-107.11169572 41.17222316 -104.41381454 40 -100 40 C-100 39.34 -100 38.68 -100 38 C-99.01773438 37.65388672 -99.01773438 37.65388672 -98.015625 37.30078125 C-89.37993912 34.21486525 -80.91482912 30.78679638 -72.5625 27 C-56.9272541 20 -56.9272541 20 -52 20 C-52 19.34 -52 18.68 -52 18 C-50.69289063 17.54560547 -50.69289063 17.54560547 -49.359375 17.08203125 C-37.8492126 13.03354339 -26.67901285 8.33404269 -15.51806641 3.41064453 C-13.68122418 2.60136778 -11.84072613 1.80040336 -10 1 C-9.12214844 0.58105469 -8.24429687 0.16210938 -7.33984375 -0.26953125 C-4.36112813 -1.19944748 -2.93556092 -1.0649942 0 0 Z " fill="#020202" transform="translate(337,9)"/>
<path d="M0 0 C10.18280687 1.22486187 19.8235816 3.68788799 29.69677734 6.37841797 C41.85137486 9.65863901 54.13185204 12.48813733 66.375 15.4140625 C70.8559141 16.48506483 75.33489233 17.56369596 79.8125 18.6484375 C80.92246338 18.91672363 82.03242676 19.18500977 83.17602539 19.46142578 C85.28494705 19.97133049 87.39353247 20.48262873 89.50170898 20.99560547 C94.85891478 22.28840107 100.21098111 23.47455996 105.63305664 24.46386719 C108 25 108 25 110.61108398 25.89916992 C115.30058512 27.42247232 120.06919975 28.47492458 124.875 29.56640625 C125.91769043 29.80536118 126.96038086 30.0443161 128.03466797 30.29051208 C130.23307417 30.79364512 132.43181242 31.29532925 134.63085938 31.7956543 C137.98911877 32.56002334 141.34618906 33.32945118 144.703125 34.09960938 C146.8436814 34.58884193 148.98430421 35.077784 151.125 35.56640625 C152.62522705 35.91017052 152.62522705 35.91017052 154.15576172 36.26087952 C158.75606625 37.30539417 163.33153086 38.30002436 168 39 C168 39.66 168 40.32 168 41 C169.28575928 41.12221924 170.57151855 41.24443848 171.89624023 41.37036133 C176.91051234 41.93020635 181.74915183 42.93664961 186.66015625 44.07421875 C187.55933273 44.27858551 188.45850922 44.48295227 189.38493347 44.69351196 C192.27866963 45.35298947 195.17060806 46.01998615 198.0625 46.6875 C200.06408623 47.14560723 202.06571404 47.60353286 204.06738281 48.0612793 C215.07707631 50.58744492 226.05388805 53.20605329 236.99438477 56.01782227 C244.796767 58.00345633 252.65622499 59.64218819 260.54541016 61.24291992 C267.5460937 62.67031696 274.45848301 64.30698311 281.375 66.09375 C286.19385556 67.29846389 291.04571801 68.30614259 295.9140625 69.2890625 C299 70 299 70 301.9296875 70.9921875 C305.42439436 72.13930502 308.88541333 72.82410168 312.5 73.5 C316.03364746 74.16076335 319.42113549 74.80224131 322.82421875 75.96484375 C327.24586159 77.40609265 331.74747019 78.2018528 336.3125 79.0625 C338.12176072 79.40403764 339.9303968 79.74890692 341.73828125 80.09765625 C342.53274658 80.24726807 343.32721191 80.39687988 344.14575195 80.55102539 C346 81 346 81 347 82 C348.89767771 82.2251482 350.79614019 82.44741474 352.69921875 82.62109375 C355 83 355 83 357.72387695 83.93383789 C361.04315918 85.01404547 364.2965386 85.75575389 367.71875 86.4375 C368.98074219 86.69273437 370.24273437 86.94796875 371.54296875 87.2109375 C372.86189196 87.47439527 374.18090324 87.73741254 375.5 88 C378.09467168 88.5165112 380.68815061 89.03805293 383.28125 89.5625 C384.42658203 89.79066406 385.57191406 90.01882813 386.75195312 90.25390625 C389.92512924 90.98280179 392.91629882 91.96330903 396 93 C397.91466916 93.44982599 399.83716224 93.86747024 401.765625 94.25390625 C402.82007813 94.46853516 403.87453125 94.68316406 404.9609375 94.90429688 C406.04632813 95.12150391 407.13171875 95.33871094 408.25 95.5625 C410.42238743 95.99875813 412.59429055 96.43743714 414.765625 96.87890625 C415.72243164 97.0704126 416.67923828 97.26191895 417.66503906 97.45922852 C420 98 420 98 422 99 C418.62017055 106.53078503 411.1402439 111.72593471 405 117 C402.53978272 119.12282433 400.08200488 121.24845877 397.625 123.375 C396.97055908 123.94138184 396.31611816 124.50776367 395.6418457 125.09130859 C389.57169048 130.35397652 383.60234966 135.72240307 377.66015625 141.12890625 C372.69904586 145.62365618 367.68484911 150.05444181 362.625 154.4375 C361.73216309 155.21830933 361.73216309 155.21830933 360.82128906 156.01489258 C358.02794051 158.4208048 355.43018273 160.58906277 352 162 C352 162.66 352 163.32 352 164 C350.390625 165.5859375 350.390625 165.5859375 348.25 167.375 C345.93096298 169.33757727 343.74780716 171.2588295 341.625 173.4375 C340 175 340 175 338 175 C338 175.66 338 176.32 338 177 C336.42578125 178.33203125 336.42578125 178.33203125 334.3125 179.8125 C330.87747979 182.30740942 327.93365013 184.91590627 325 188 C320.80653328 192.30764527 316.4879366 196.36504781 311.93359375 200.2890625 C309.16155106 202.74190028 306.58428299 205.35110994 304 208 C296.38477679 205.89141287 289.12427375 203.17056902 281.8125 200.1875 C280.71115723 199.74245117 279.60981445 199.29740234 278.47509766 198.83886719 C276.29506192 197.95788287 274.11567653 197.07528715 271.93701172 196.19091797 C268.25470409 194.69779273 264.56565814 193.2223578 260.875 191.75 C259.73675781 191.29367187 258.59851563 190.83734375 257.42578125 190.3671875 C254.96741226 189.38608243 252.50689168 188.41223641 250.04296875 187.4453125 C239.03508526 183.11001133 239.03508526 183.11001133 234.3125 180.6875 C231.70384618 179.35856315 229.78891313 178.61368241 227 178 C227 177.34 227 176.68 227 176 C226.35417969 175.90332031 225.70835937 175.80664062 225.04296875 175.70703125 C220.963645 174.75920378 217.19718264 173.23573725 213.3125 171.6875 C212.5066748 171.36990723 211.70084961 171.05231445 210.87060547 170.72509766 C208.5788169 169.82067535 206.28921527 168.91091138 204 168 C202.52466797 167.41798828 202.52466797 167.41798828 201.01953125 166.82421875 C192.85199454 163.5865166 184.70946361 160.28566739 176.75 156.5625 C169.66270928 153.29464495 162.32614626 150.67491664 155 148 C155 147.34 155 146.68 155 146 C154.15179688 145.88785156 153.30359375 145.77570313 152.4296875 145.66015625 C148.76867123 144.95547316 145.58613003 143.81488848 142.125 142.4375 C140.97257813 141.98246094 139.82015625 141.52742187 138.6328125 141.05859375 C137.32957031 140.53458984 137.32957031 140.53458984 136 140 C136 139.34 136 138.68 136 138 C135.071875 137.938125 134.14375 137.87625 133.1875 137.8125 C128.79623413 137.18267701 125.19041708 135.35092955 121.21484375 133.453125 C117.57331631 131.8071369 113.87862085 130.42700697 110.125 129.0625 C104.04093735 126.83784275 98.21122475 124.29154114 92.359375 121.50390625 C88.54560909 119.79658082 84.67568531 118.36171058 80.75 116.9375 C57.9758691 108.46985311 44.82606713 89.89042441 32 70 C31.63519531 69.43635742 31.27039063 68.87271484 30.89453125 68.29199219 C28.97230264 65.32172255 27.05866647 62.34628013 25.15625 59.36328125 C23.83897842 57.30862395 22.50876173 55.26210184 21.15625 53.23046875 C13.37370187 41.4328333 7.68672956 29.02664434 3.2265625 15.64453125 C2.50100734 13.48866193 1.725393 11.34688064 0.84375 9.25 C-0.32464145 6.13428948 -0.12914936 3.29330869 0 0 Z " fill="#020202" transform="translate(32,413)"/>
<!-- <path d="M0 0 C3.80592193 0.59494872 5.89667253 2.29550929 8.8125 4.75 C9.781875 5.56339844 10.75125 6.37679687 11.75 7.21484375 C16.57760845 11.33941686 21.37733188 15.49606978 26.1640625 19.66796875 C29.23513391 22.34214651 32.32774885 24.9895914 35.42919922 27.62841797 C40.95523074 32.33191328 46.36068922 37.13228553 51.67700195 42.07128906 C54.81607155 44.9685704 58.04225256 47.70393673 61.375 50.375 C67.10027069 54.98173011 72.42180063 59.96812867 77.77734375 64.9921875 C80.82137013 67.84546778 83.92966877 70.61188009 87.08984375 73.3359375 C89.36204511 75.31540126 91.58459872 77.3458317 93.8125 79.375 C97.27530082 82.50422827 100.80679003 85.50500349 104.4375 88.4375 C110.170343 93.07291305 115.59362514 97.99099892 121 103 C120.505 104.485 120.505 104.485 120 106 C120.99 107.485 120.99 107.485 122 109 C121.01 109 120.02 109 119 109 C119 108.34 119 107.68 119 107 C118.46375 106.773125 117.9275 106.54625 117.375 106.3125 C114.17539839 104.54429911 111.70962777 102.46329797 109 100 C109 99.34 109 98.68 109 98 C107.02 97.01 107.02 97.01 105 96 C105 95.34 105 94.68 105 94 C104.443125 93.731875 103.88625 93.46375 103.3125 93.1875 C102.549375 92.795625 101.78625 92.40375 101 92 C100.175 91.5875 99.35 91.175 98.5 90.75 C96 89 96 89 94 85.9375 C91.83773038 82.7616665 90.62766979 82.00768605 87 81 C87 80.34 87 79.68 87 79 C86.34 79 85.68 79 85 79 C83.64567325 77.68799596 82.31266518 76.35368596 81 75 C80.34 74.67 79.68 74.34 79 74 C79 73.34 79 72.68 79 72 C78.34 72 77.68 72 77 72 C77 71.34 77 70.68 77 70 C76.34 70 75.68 70 75 70 C75 69.34 75 68.68 75 68 C74.01 68 73.02 68 72 68 C70.65576661 66.34211215 69.32381517 64.67423683 68 63 C66.34338239 61.98343919 64.67888441 60.97934924 63 60 C63 59.34 63 58.68 63 58 C62.34 58 61.68 58 61 58 C61 57.34 61 56.68 61 56 C60.44828125 55.7628125 59.8965625 55.525625 59.328125 55.28125 C56.43225289 53.68754857 54.20487963 51.71082727 51.75 49.5 C50.85796875 48.7059375 49.9659375 47.911875 49.046875 47.09375 C47 45 47 45 47 43 C46.401875 42.731875 45.80375 42.46375 45.1875 42.1875 C43.01273336 41.00691239 41.73183488 39.73183488 40 38 C39.01 37.67 38.02 37.34 37 37 C35.31126121 35.35570171 33.64694485 33.68615782 32 32 C31.071875 31.278125 30.14375 30.55625 29.1875 29.8125 C28.465625 29.214375 27.74375 28.61625 27 28 C27 27.34 27 26.68 27 26 C26.4225 25.731875 25.845 25.46375 25.25 25.1875 C22.94449957 23.97070811 20.97943808 22.69666121 19 21 C19 20.34 19 19.68 19 19 C18.1028125 18.566875 18.1028125 18.566875 17.1875 18.125 C15 17 15 17 12 15 C12 14.34 12 13.68 12 13 C11.29875 12.773125 10.5975 12.54625 9.875 12.3125 C6.25871465 10.66158712 3.91230024 8.7091165 1 6 C1 5.34 1 4.68 1 4 C0.34 4 -0.32 4 -1 4 C-0.67 2.68 -0.34 1.36 0 0 Z " fill="#0E0E0E" transform="translate(503,158)"/> -->
<!-- <path d="M0 0 C5.05622236 3.56909814 9.62673353 7.44285703 14.125 11.6875 C18.57772132 15.88089629 23.1435613 19.78220066 28 23.5 C33.38153582 27.62397942 38.38387826 32.01151476 43.31640625 36.66015625 C46.60834962 39.75137136 49.97382764 42.67293851 53.5 45.5 C57.6666621 48.84301959 61.60419812 52.35115137 65.5 56 C70.25955808 60.4574971 75.16145692 64.63608172 80.25 68.71875 C83.28582559 71.23710532 86.17661218 73.87562308 89.0625 76.5625 C95.05791967 82.134137 101.37283142 87.1949232 107.84375 92.19921875 C108.7615625 92.91722656 109.679375 93.63523437 110.625 94.375 C111.46289062 95.02210937 112.30078125 95.66921875 113.1640625 96.3359375 C113.76992188 96.88507813 114.37578125 97.43421875 115 98 C115 98.66 115 99.32 115 100 C113.02 100.66 111.04 101.32 109 102 C108.9071875 101.071875 108.9071875 101.071875 108.8125 100.125 C108.171081 97.72238859 108.171081 97.72238859 105.4375 96.75 C104.633125 96.5025 103.82875 96.255 103 96 C103 95.34 103 94.68 103 94 C102.34 94 101.68 94 101 94 C101 93.34 101 92.68 101 92 C99.35 91.34 97.7 90.68 96 90 C96 89.34 96 88.68 96 88 C95.2575 87.773125 94.515 87.54625 93.75 87.3125 C90.42093866 85.72362982 89.29010592 83.8789903 87 81 C84.91683585 79.36638187 82.78649316 77.83773888 80.609375 76.33203125 C80.07828125 75.89246094 79.5471875 75.45289062 79 75 C79 74.34 79 73.68 79 73 C78.40832031 72.72599365 77.81664062 72.4519873 77.20703125 72.16967773 C75.08204499 71.04348203 73.49020642 69.86440667 71.6875 68.28515625 C71.08679688 67.76373047 70.48609375 67.24230469 69.8671875 66.70507812 C69.25101562 66.16302734 68.63484375 65.62097656 68 65.0625 C66.77181266 63.98976315 65.54267176 62.91811687 64.3125 61.84765625 C63.74015625 61.34766113 63.1678125 60.84766602 62.578125 60.33251953 C61.28821407 59.24335897 59.93285304 58.23213303 58.5625 57.24609375 C57.7890625 56.62927734 57.7890625 56.62927734 57 56 C57 55.34 57 54.68 57 54 C56.01 54 55.02 54 54 54 C52.28769752 52.38025441 50.62836738 50.7041054 49 49 C47.90600266 48.09177579 46.80188119 47.19559453 45.6875 46.3125 C44.800625 45.549375 43.91375 44.78625 43 44 C43 43.34 43 42.68 43 42 C42.34 42 41.68 42 41 42 C40.67 41.01 40.34 40.02 40 39 C39.29230469 38.73316406 38.58460938 38.46632812 37.85546875 38.19140625 C33.90458649 36.54295332 31.35976351 33.88813454 28.3125 30.9375 C24.47907162 27.03104422 24.47907162 27.03104422 20 24 C20 23.34 20 22.68 20 22 C19.1028125 21.566875 19.1028125 21.566875 18.1875 21.125 C16 20 16 20 13 18 C13 17.34 13 16.68 13 16 C12.38125 15.731875 11.7625 15.46375 11.125 15.1875 C9 14 9 14 7 11 C6.38125 10.690625 5.7625 10.38125 5.125 10.0625 C2.52959008 8.76479504 0.90327403 7.17517032 -1 5 C-1 4.34 -1 3.68 -1 3 C-1.66 2.67 -2.32 2.34 -3 2 C-2.01 1.34 -1.02 0.68 0 0 Z " fill="#0E0E0E" transform="translate(337,10)"/> -->
<!-- <path d="M0 0 C3.25826731 0.58507861 4.92604769 1.54369872 7.28515625 3.84375 C7.89230469 4.42584229 8.49945312 5.00793457 9.125 5.60766602 C9.764375 6.23213623 10.40375 6.85660645 11.0625 7.5 C16.24928653 12.45630433 21.50708381 17.16906179 27.11328125 21.65234375 C32.63774254 26.14517357 37.96837421 30.86663385 43.33056641 35.55078125 C44.77661497 36.80608167 46.23668934 38.04519041 47.69921875 39.28125 C48.41722656 39.8896875 49.13523437 40.498125 49.875 41.125 C50.47054687 41.62257813 51.06609375 42.12015625 51.6796875 42.6328125 C53 44 53 44 54 47 C52.35 47.99 50.7 48.98 49 50 C48.5875 49.05125 48.175 48.1025 47.75 47.125 C45.96561911 43.93860555 45.31618068 43.17670927 42 42 C41.01 41.505 41.01 41.505 40 41 C40 40.34 40 39.68 40 39 C39.34 39 38.68 39 38 39 C35.375 36.625 35.375 36.625 33 34 C33 33.34 33 32.68 33 32 C31.35 31.34 29.7 30.68 28 30 C28 29.34 28 28.68 28 28 C27.278125 27.773125 26.55625 27.54625 25.8125 27.3125 C22.45437121 25.74537323 20.5381948 23.671784 18 21 C17.01 20.34 16.02 19.68 15 19 C15 18.34 15 17.68 15 17 C12.525 16.01 12.525 16.01 10 15 C10 14.34 10 13.68 10 13 C9.34 13 8.68 13 8 13 C8 12.34 8 11.68 8 11 C7.443125 10.773125 6.88625 10.54625 6.3125 10.3125 C3.28427625 8.59377841 1.22676336 6.67211603 -1 4 C-0.8125 1.6875 -0.8125 1.6875 0 0 Z " fill="#0E0E0E" transform="translate(626,265)"/> -->
<!-- <path d="M0 0 C2.625 0.9375 2.625 0.9375 5 2 C2.05831009 6.29939294 -0.04703021 7.58486578 -5 9 C-6.69207001 9.9563874 -8.36816893 10.94410931 -10 12 C-10 11.34 -10 10.68 -10 10 C-9.34 10 -8.68 10 -8 10 C-7.7525 9.443125 -7.505 8.88625 -7.25 8.3125 C-5.43760226 4.95956419 -3.46885508 1.73442754 0 0 Z " fill="#0E0E0E" transform="translate(410,546)"/> -->
<!-- <path d="M0 0 C6.75 0.875 6.75 0.875 9 2 C7.4169423 6.2742558 4.49431596 8.26531794 1 11 C0.3125 9.3125 0.3125 9.3125 0 7 C1.4375 4.25 1.4375 4.25 3 2 C2.01 1.34 1.02 0.68 0 0 Z " fill="#1C1C1C" transform="translate(445,510)"/> -->
<!-- <path d="M0 0 C5.18383169 0 8.07408333 0.49471726 12 4 C12 4.66 12 5.32 12 6 C10.02 6.66 8.04 7.32 6 8 C5.938125 7.38125 5.87625 6.7625 5.8125 6.125 C5.171081 3.72238859 5.171081 3.72238859 2.4375 2.75 C1.633125 2.5025 0.82875 2.255 0 2 C0 1.34 0 0.68 0 0 Z " fill="#0F0F0F" transform="translate(440,104)"/> -->
<!-- <path d="M0 0 C2.00720923 0.28674418 4.0085944 0.61866701 6 1 C3.6875 3.5 3.6875 3.5 1 6 C0.01 6 -0.98 6 -2 6 C-1.125 1.125 -1.125 1.125 0 0 Z " fill="#121212" transform="translate(347,603)"/> -->
<!-- <path d="M0 0 C0.99 0.99 1.98 1.98 3 3 C2.01 4.32 1.02 5.64 0 7 C-1.65 6.67 -3.3 6.34 -5 6 C-3.625 4.5 -3.625 4.5 -2 3 C-1.34 3 -0.68 3 0 3 C0 2.01 0 1.02 0 0 Z " fill="#191919" transform="translate(336,614)"/> -->
<!-- <path d="M0 0 C0.33 0 0.66 0 1 0 C1.25 2.3125 1.25 2.3125 1 5 C-1 6.8125 -1 6.8125 -3 8 C-3.33 6.68 -3.66 5.36 -4 4 C-2.68 3.34 -1.36 2.68 0 2 C0 1.34 0 0.68 0 0 Z " fill="#101010" transform="translate(449,513)"/> -->
<!-- <path d="M0 0 C0.99 0 1.98 0 3 0 C2.67 1.65 2.34 3.3 2 5 C0.35 4.67 -1.3 4.34 -3 4 C-1.6875 2 -1.6875 2 0 0 Z " fill="#F4F4F4" transform="translate(452,515)"/> -->
<!-- <path d="M0 0 C1.32 0.33 2.64 0.66 4 1 C2.68 2.32 1.36 3.64 0 5 C-0.66 4.67 -1.32 4.34 -2 4 C-1.34 2.68 -0.68 1.36 0 0 Z " fill="#131313" transform="translate(609,370)"/> -->
</svg>
