<?xml version="1.0" encoding="UTF-8"?>
<svg version="1.1" xmlns="http://www.w3.org/2000/svg" width="128" height="117">
<!-- <path d="M0 0 C42.24 0 84.48 0 128 0 C128 38.61 128 77.22 128 117 C85.76 117 43.52 117 0 117 C0 78.39 0 39.78 0 0 Z " fill="#FBFBFB" transform="translate(0,0)"/> -->
<!-- <path d="M0 0 C0 19.47 0 38.94 0 59 C-42.24 59 -84.48 59 -128 59 C-128 12 -128 12 -126 8 C-125.67 9.65 -125.34 11.3 -125 13 C-124.07179443 13.12528076 -123.14358887 13.25056152 -122.18725586 13.37963867 C-105.59710554 15.624804 -89.02274251 17.92338957 -72.5 20.625 C-71.23140137 20.83237793 -69.96280273 21.03975586 -68.65576172 21.25341797 C-66.22860759 21.65109808 -63.80152093 22.04919031 -61.37451172 22.44775391 C-56.44006647 23.25528647 -51.5036038 24.04677887 -46.5625 24.8125 C-45.79421875 24.93641113 -45.0259375 25.06032227 -44.234375 25.18798828 C-42.15833281 25.50547311 -40.08782928 25.77350216 -38 26 C-36.95465088 26.11492798 -36.95465088 26.11492798 -35.88818359 26.23217773 C-32.14217687 26.46130071 -30.23731091 26.15852624 -27.09375 24.05859375 C-26.2378125 23.19363281 -25.381875 22.32867187 -24.5 21.4375 C-23.56285156 20.5196875 -22.62570313 19.601875 -21.66015625 18.65625 C-20.34337891 17.34140625 -20.34337891 17.34140625 -19 16 C-17.65820448 14.79853906 -16.30537919 13.60917834 -14.9375 12.4375 C-10.89746583 8.9339019 -6.95004537 5.33141554 -3.00390625 1.72265625 C-1 0 -1 0 0 0 Z " fill="#FBFBFB" transform="translate(128,58)"/> -->
<path d="M0 0 C2.5078125 1.96875 2.5078125 1.96875 5.125 4.5 C8.86367943 8.02762494 12.61958934 11.39591894 16.625 14.625 C21.55408407 18.60372829 26.30658088 22.74695107 31 27 C23.55019114 36.26192452 14.44704215 43.76995179 5.21484375 51.1875 C2.97246433 52.96126357 2.97246433 52.96126357 1 55 C-4.33738901 55.2732086 -9.32837656 54.80243069 -14.62109375 54.01171875 C-15.32412125 53.90785355 -16.02714874 53.80398834 -16.7514801 53.69697571 C-18.23340873 53.47689541 -19.71492964 53.25405347 -21.19604492 53.02856445 C-23.40000501 52.69320532 -25.60508204 52.3663149 -27.81054688 52.04101562 C-35.02985867 50.96623058 -42.22417933 49.80062901 -49.40625 48.5 C-58.58965683 46.84234967 -67.81649119 45.56480871 -77.0625 44.3125 C-78.71944211 44.08558616 -80.37634338 43.85837383 -82.03320312 43.63085938 C-86.02167577 43.08381835 -90.01066932 42.5407467 -94 42 C-95.46289389 37.82221855 -96.25166429 34.50150204 -96.1875 30.0625 C-96.18105469 29.08410156 -96.17460938 28.10570313 -96.16796875 27.09765625 C-95.98311608 23.68862902 -95.52747315 20.37160835 -95 17 C-75.20270846 12.46483682 -55.32235011 8.4442576 -35.375 4.625 C-34.21359497 4.40249573 -33.05218994 4.17999146 -31.85559082 3.95074463 C-28.51601994 3.3118584 -25.1761087 2.67480228 -21.8359375 2.0390625 C-20.83088165 1.847677 -19.82582581 1.6562915 -18.79031372 1.45910645 C-3.93015084 -1.35609039 -3.93015084 -1.35609039 0 0 Z " fill="#030303" transform="translate(97,30)"/>
<path d="M0 0 C6.37193225 0.29985564 12.23400293 1.49333302 18.36816406 3.21044922 C24.64220984 4.94818081 30.96659592 6.4240509 37.3125 7.875 C38.40957275 8.12620605 39.50664551 8.37741211 40.63696289 8.63623047 C42.91502839 9.15684669 45.19327065 9.67669003 47.47167969 10.19580078 C53.46187638 11.56112793 59.44987886 12.93592944 65.4375 14.3125 C66.5510083 14.56692871 67.6645166 14.82135742 68.81176758 15.08349609 C69.84197021 15.3202002 70.87217285 15.5569043 71.93359375 15.80078125 C72.84165771 16.00872314 73.74972168 16.21666504 74.68530273 16.4309082 C77 17 77 17 80 18 C78.73968523 21.78094432 77.11710652 22.74143725 74 25.1875 C69.45923812 28.76952588 65.29804147 32.52051644 61.265625 36.6640625 C57.8959875 38.65098668 55.80156076 37.76708543 52 37 C48.95260337 36.03317071 45.99664247 34.87619316 43.03125 33.68359375 C42.1921106 33.34884537 41.35297119 33.01409698 40.48840332 32.66920471 C38.72177135 31.95991286 36.95694177 31.24611697 35.19384766 30.52807617 C32.5163008 29.44409921 29.82734793 28.39280083 27.13671875 27.34179688 C10.42031309 20.6569316 10.42031309 20.6569316 6 13 C5.34128906 11.88753906 4.68257812 10.77507812 4.00390625 9.62890625 C3.29041016 8.11103516 3.29041016 8.11103516 2.5625 6.5625 C2.06878906 5.53253906 1.57507813 4.50257812 1.06640625 3.44140625 C0 1 0 1 0 0 Z " fill="#040504" transform="translate(4,78)"/>
<path d="M0 0 C1.84747557 1.53956298 3.63632596 3.151045 5.375 4.8125 C8.53283899 7.77377527 11.60310047 10.5690325 15.1875 13 C16.115625 13.66 17.04375 14.32 18 15 C18 15.66 18 16.32 18 17 C17.40276123 17.15557373 16.80552246 17.31114746 16.19018555 17.47143555 C10.14203189 19.04722852 4.09454753 20.62556929 -1.95263672 22.20507812 C-4.59416107 22.89413463 -7.23637034 23.5804615 -9.87890625 24.265625 C-20.05169541 26.91263185 -30.17833079 29.70541948 -40.28662109 32.58959961 C-55.85141384 37 -55.85141384 37 -62 37 C-60.91179528 29.50347862 -58.53379377 23.35642858 -53 18 C-45.81627553 13.70412239 -37.82028838 10.68212159 -30.125 7.4375 C-28.48337891 6.73463867 -28.48337891 6.73463867 -26.80859375 6.01757812 C-21.41624118 3.73619819 -15.99271845 1.54292581 -10.4921875 -0.46484375 C-9.08622314 -0.98292603 -9.08622314 -0.98292603 -7.65185547 -1.51147461 C-4.38675736 -2.11297169 -2.9017891 -1.54180426 0 0 Z " fill="#040404" transform="translate(66,3)"/>
</svg>
