<?xml version="1.0" encoding="UTF-8"?>
<svg version="1.1" xmlns="http://www.w3.org/2000/svg" width="541" height="117">
<path d="M0 0 C2.15567016 1.65052674 3.96875193 3.22578267 5.875 5.125 C6.92891532 6.13492101 7.98359944 7.14404037 9.0390625 8.15234375 C9.54469727 8.64202637 10.05033203 9.13170898 10.57128906 9.63623047 C13.27440155 12.21647421 16.14107288 14.59590219 19 17 C15.93842887 19.04104742 13.76707439 19.73187219 10.234375 20.64819336 C9.04884033 20.95869125 7.86330566 21.26918915 6.6418457 21.58909607 C5.34458895 21.92277643 4.04730638 22.2563564 2.75 22.58984375 C1.41287068 22.93800857 0.0758772 23.28669549 -1.26098633 23.63587952 C-4.78674534 24.55538639 -8.31420986 25.46817239 -11.84210205 26.37945557 C-16.09148457 27.47836956 -20.33885918 28.5850116 -24.58651733 29.69056797 C-27.90060295 30.55298718 -31.21505679 31.41388971 -34.53027344 32.2719574 C-35.74102539 32.58560745 -36.95177734 32.89925751 -38.19921875 33.22241211 C-39.92470947 33.66893631 -39.92470947 33.66893631 -41.68505859 34.1244812 C-45.70785656 35.18695405 -49.70985945 36.31714545 -53.70629883 37.47462463 C-56 38 -56 38 -60 38 C-58.3801626 31.0659592 -56.27583599 24.99242332 -51 20 C-46.39404383 17.21499499 -41.79412787 14.94489609 -36.81640625 12.87109375 C-36.15720688 12.59531998 -35.49800751 12.3195462 -34.8188324 12.03541565 C-33.43569331 11.45775643 -32.05165195 10.88225317 -30.66674805 10.30883789 C-28.56947093 9.44038656 -26.47495951 8.5655337 -24.38085938 7.68945312 C-20.59437371 6.10854395 -16.79892103 4.55078946 -13 3 C-12.14905762 2.64695801 -11.29811523 2.29391602 -10.42138672 1.93017578 C-3.64195723 -0.78127795 -3.64195723 -0.78127795 0 0 Z " fill="#000000" transform="translate(65,2)"/>
<path d="M0 0 C2.8100346 1.79363911 4.50940468 3.01880935 6 6 C6.34411038 11.24768331 6.5679453 14.81689172 3 19 C-0.05287544 20.8656461 -1.90438162 21.00170747 -5.5 20.9375 C-9.75107809 19.79881837 -11.35945923 18.49483337 -14 15 C-15.03027506 11.70311982 -15.17298003 9.72651613 -14.375 6.375 C-10.97183861 0.49681215 -6.51274962 -1.34202113 0 0 Z " fill="#000000" transform="translate(454,9)"/>
<path d="M0 0 C1.57411571 1.33772973 3.11464788 2.71567478 4.625 4.125 C9.07807608 8.20698641 13.67653519 12.04793531 18.37109375 15.84765625 C21.99150687 18.81176863 25.5070741 21.88739268 29 25 C21.55019114 34.26192452 12.44704215 41.76995179 3.21484375 49.1875 C0.97246433 50.96126357 0.97246433 50.96126357 -1 53 C-11.53511072 53.31527934 -22.52493383 50.86915335 -32.91796875 49.3125 C-34.71059353 49.04698547 -36.50326303 48.78177274 -38.29597473 48.5168457 C-42.02367836 47.96495295 -45.75089908 47.4099383 -49.4777832 46.85253906 C-54.25972222 46.1375345 -59.04269615 45.42974352 -63.82602978 44.72413635 C-67.51430939 44.17939961 -71.20208294 43.63130008 -74.88970375 43.0821228 C-76.65466486 42.81961834 -78.41976969 42.55807835 -80.18501854 42.29751587 C-82.63842973 41.93478525 -85.09113744 41.56762975 -87.54370117 41.19921875 C-88.27349686 41.09217621 -89.00329254 40.98513367 -89.75520325 40.87484741 C-94.77131402 40.11434299 -94.77131402 40.11434299 -97 39 C-97 31.74 -97 24.48 -97 17 C-92.11987578 14.55993789 -89.09888957 13.40588606 -83.93164062 12.421875 C-82.91067291 12.22362122 -82.91067291 12.22362122 -81.86907959 12.0213623 C-79.63297913 11.58924309 -77.39472408 11.16963325 -75.15625 10.75 C-73.58394942 10.44840863 -72.01180822 10.14598529 -70.43981934 9.84277344 C-66.30385803 9.04711196 -62.16599577 8.26182708 -58.02758789 7.47900391 C-53.04200373 6.53418442 -48.05854214 5.57825056 -43.07497406 4.62286377 C-39.18722323 3.87761598 -35.29915063 3.13426585 -31.40979004 2.39746094 C-30.69144737 2.26067932 -29.97310471 2.12389771 -29.23299408 1.98297119 C-27.83056416 1.71634797 -26.42774383 1.45176885 -25.02451324 1.18939209 C-21.66196395 0.55172254 -18.33330989 -0.14520106 -15.01245117 -0.97460938 C-13.77277588 -1.27689453 -12.53310059 -1.57917969 -11.25585938 -1.890625 C-10.16704468 -2.17454102 -9.07822998 -2.45845703 -7.9564209 -2.75097656 C-4.27864459 -3.06076077 -2.90798431 -2.18339198 0 0 Z " fill="#000000" transform="translate(99,32)"/>
<path d="M0 0 C0 3.96 0 7.92 0 12 C6.27 12 12.54 12 19 12 C18.67 14.64 18.34 17.28 18 20 C12.06 20 6.12 20 0 20 C0.05108862 24.48558109 0.1140536 28.96771101 0.20751953 33.45214844 C0.23570535 34.97677431 0.25693189 36.50154566 0.27099609 38.02636719 C0.29246049 40.22145936 0.33912169 42.41480711 0.390625 44.609375 C0.41157227 45.92905273 0.43251953 47.24873047 0.45410156 48.60839844 C1.07736291 52.4806465 1.87825341 53.70216218 5 56 C7.6425784 56.5188938 7.6425784 56.5188938 10.4375 56.3125 C11.36433594 56.28800781 12.29117188 56.26351562 13.24609375 56.23828125 C15.89573135 56.00902183 18.40635893 55.57897977 21 55 C21 56.65 21 58.3 21 60 C18.84261654 61.33018446 16.67607313 62.63851757 14.5 63.9375 C13.89929688 64.31068359 13.29859375 64.68386719 12.6796875 65.06835938 C7.45945955 68.15051524 2.76030915 69.42395642 -3.390625 68.73046875 C-5.26892199 68.18197446 -7.13455369 67.59072466 -9 67 C-9.7425 66.773125 -10.485 66.54625 -11.25 66.3125 C-14.8739219 63.59455857 -16.66569566 59.64191871 -17.54589844 55.31884766 C-18.02949879 51.78440507 -18.11289906 48.4183804 -18.09765625 44.8515625 C-18.0962413 44.19417084 -18.09482635 43.53677917 -18.09336853 42.85946655 C-18.08781762 40.78126269 -18.07527465 38.70317073 -18.0625 36.625 C-18.05747864 35.20703282 -18.05291685 33.78906393 -18.04882812 32.37109375 C-18.03786437 28.91402678 -18.02063421 25.45702433 -18 22 C-18.61359375 21.70351563 -19.2271875 21.40703125 -19.859375 21.1015625 C-22.11432169 19.94117022 -24.00928004 18.56413711 -26 17 C-25.64757206 14.26236359 -25.2335281 13.20572423 -23.12988281 11.35253906 C-21.9286377 10.5670166 -21.9286377 10.5670166 -20.703125 9.765625 C-19.8265625 9.19199219 -18.95 8.61835937 -18.046875 8.02734375 C-17.12390625 7.44082031 -16.2009375 6.85429688 -15.25 6.25 C-14.3425 5.64800781 -13.435 5.04601563 -12.5 4.42578125 C-5.63552296 0 -5.63552296 0 0 0 Z " fill="#000000" transform="translate(164,33)"/>
<path d="M0 0 C7.58835496 5.2392856 11.25341178 10.88694123 13.75 19.625 C14.67801127 28.44110703 13.45677551 37.01033625 8.25 44.375 C2.10350821 51.70581582 -4.50087595 54.68455758 -14 56 C-22.9909608 56.28096752 -30.72954805 54.49400614 -37.75 48.75 C-45.30514124 39.51593848 -46.84590455 31.8069212 -46 20 C-44.46973139 13.36300642 -41.27315842 7.3905747 -36 3 C-25.30229282 -3.51679947 -11.55381216 -6.31749729 0 0 Z M-24.1875 7 C-29.82066516 16.32385958 -28.45704482 28.5740957 -26.43359375 38.88671875 C-25.38249247 42.52052602 -24.265399 44.69774003 -21.75 47.5625 C-18.14268037 49.44814435 -16.01848448 49.64582786 -12 49 C-7.38695622 45.61710122 -6.25613545 42.45251714 -5 37 C-4.71517022 34.24302424 -4.6657687 31.52026823 -4.6875 28.75 C-4.69241455 28.00782227 -4.6973291 27.26564453 -4.70239258 26.50097656 C-4.86334632 18.89075361 -5.64699599 12.01667181 -10.4375 5.875 C-15.7212198 2.00886356 -19.30257568 2.53378348 -24.1875 7 Z " fill="#000000" transform="translate(307,46)"/>
<path d="M0 0 C0.99 2.97 1.98 5.94 3 9 C3.58007812 8.51789062 4.16015625 8.03578125 4.7578125 7.5390625 C11.64626088 1.969195 16.66213983 -0.4552446 25.6015625 -0.25390625 C29.98774043 0.21042855 32.84411691 2.10097982 36.25 4.75 C40.32004714 9.98291776 40.31899629 16.41391668 40.4140625 22.77734375 C40.43342865 23.58869278 40.4527948 24.40004181 40.4727478 25.23597717 C40.53206966 27.80304772 40.57873736 30.37016429 40.625 32.9375 C40.66322352 34.68816956 40.70227774 36.43882119 40.7421875 38.18945312 C40.83773156 42.45948816 40.92193537 46.7296111 41 51 C43.31 51.99 45.62 52.98 48 54 C48 54.99 48 55.98 48 57 C37.44 57 26.88 57 16 57 C16 56.01 16 55.02 16 54 C17.98 53.34 19.96 52.68 22 52 C21.88189912 47.0519151 21.7576616 42.10403724 21.62768555 37.15625 C21.58432183 35.47237358 21.5426478 33.78845277 21.50268555 32.10449219 C21.44501766 29.68671276 21.3813135 27.26915705 21.31640625 24.8515625 C21.29969376 24.0963028 21.28298126 23.34104309 21.26576233 22.56289673 C21.22444893 18.65260201 21.22444893 18.65260201 20 15 C17.21720062 14.07240021 15.50101415 13.86518425 12.625 13.875 C11.87476563 13.87242188 11.12453125 13.86984375 10.3515625 13.8671875 C7.53644417 13.97093533 7.53644417 13.97093533 3 15 C3 27.21 3 39.42 3 52 C5.31 52.66 7.62 53.32 10 54 C10 54.99 10 55.98 10 57 C-0.89 57 -11.78 57 -23 57 C-23 56.01 -23 55.02 -23 54 C-20.69 53.01 -18.38 52.02 -16 51 C-15.82658194 45.96477795 -15.69976604 40.93130283 -15.61547852 35.89379883 C-15.58033691 34.18157671 -15.53261093 32.46956376 -15.47192383 30.75805664 C-15.38671079 28.29260705 -15.34725455 25.82993765 -15.31640625 23.36328125 C-15.28027725 22.60163162 -15.24414825 21.83998199 -15.20692444 21.05525208 C-15.13169909 18.56987427 -15.13169909 18.56987427 -16 15 C-17.72464694 13.36199368 -19.41094561 12.23724404 -21.49278259 11.09269714 C-21.99016434 10.73210709 -22.48754608 10.37151703 -23 10 C-23 9.01 -23 8.02 -23 7 C-19.92064034 5.8226504 -16.83592484 4.66002109 -13.75 3.5 C-12.87730469 3.16613281 -12.00460937 2.83226562 -11.10546875 2.48828125 C-10.26113281 2.17246094 -9.41679687 1.85664062 -8.546875 1.53125 C-7.77182617 1.23798828 -6.99677734 0.94472656 -6.19824219 0.64257812 C-4 0 -4 0 0 0 Z " fill="#000000" transform="translate(350,43)"/>
<path d="M0 0 C0 16.83 0 33.66 0 51 C2.31 51.99 4.62 52.98 7 54 C7 54.99 7 55.98 7 57 C-4.22 57 -15.44 57 -27 57 C-27 56.01 -27 55.02 -27 54 C-24.69 53.01 -22.38 52.02 -20 51 C-19.87630293 45.80396196 -19.78561691 40.60878256 -19.7253418 35.41162109 C-19.70021359 33.64421662 -19.66610484 31.8769159 -19.62280273 30.10986328 C-19.56207265 27.56777351 -19.53377485 25.02705835 -19.51171875 22.484375 C-19.48591232 21.69569031 -19.4601059 20.90700562 -19.43351746 20.09442139 C-19.43149778 16.13445905 -19.58981508 14.42080069 -22.40551758 11.53222656 C-23.91123917 10.64299078 -25.43591873 9.78204064 -27 9 C-27 8.01 -27 7.02 -27 6 C-24.0835095 5.18686324 -21.16681631 4.3744665 -18.25 3.5625 C-17.425 3.33240234 -16.6 3.10230469 -15.75 2.86523438 C-14.95078125 2.64287109 -14.1515625 2.42050781 -13.328125 2.19140625 C-12.5949707 1.98717041 -11.86181641 1.78293457 -11.10644531 1.57250977 C-10.41131836 1.38358154 -9.71619141 1.19465332 -9 1 C-8.35385742 0.81042725 -7.70771484 0.62085449 -7.04199219 0.42553711 C-5 0 -5 0 0 0 Z " fill="#000000" transform="translate(460,43)"/>
<path d="M0 0 C5.33374546 4.15351242 7.79863958 9.38029373 9.8984375 15.6796875 C10.71886263 26.8966475 9.8274688 34.94121736 2.7734375 43.9296875 C-3.59411436 50.70281591 -10.96791554 53.3658729 -20.15234375 53.7421875 C-30.16213521 53.53005947 -37.44248488 50.46137242 -44.4765625 43.2421875 C-49.39645089 35.48390196 -51.47341399 27.20606923 -49.5703125 18.15234375 C-46.85384039 8.33465924 -41.74473325 1.95272654 -32.9765625 -3.1328125 C-22.15532831 -7.60245271 -9.82844145 -6.17474574 0 0 Z M-29.1015625 6.6796875 C-31.19394169 11.63532241 -31.45252119 16.07716666 -31.4140625 21.3671875 C-31.40914795 22.16084717 -31.4042334 22.95450684 -31.39916992 23.7722168 C-31.24491078 31.54766887 -30.42403178 38.38952269 -25.8515625 44.8671875 C-22.26379685 47.23185122 -20.32409765 47.35830922 -16.1015625 46.6796875 C-12.03831584 44.2417395 -10.5591112 42.1023782 -9.1015625 37.6796875 C-7.4349424 27.03482366 -6.94406255 14.03908743 -13.1015625 4.6796875 C-13.4934375 4.0609375 -13.8853125 3.4421875 -14.2890625 2.8046875 C-20.23102167 -0.88342509 -25.35359991 1.60891458 -29.1015625 6.6796875 Z " fill="#000000" transform="translate(522.1015625,48.3203125)"/>
<path d="M0 0 C-0.0314209 1.83159668 -0.0314209 1.83159668 -0.06347656 3.70019531 C-0.13590159 8.23246524 -0.18180888 12.76468407 -0.21972656 17.29736328 C-0.23983632 19.25871381 -0.26712818 21.22000444 -0.30175781 23.18115234 C-0.35030421 26.00112695 -0.37297486 28.82030865 -0.390625 31.640625 C-0.41127014 32.51680481 -0.43191528 33.39298462 -0.45318604 34.29571533 C-0.4719778 39.25752477 -0.4719778 39.25752477 1.81347656 43.56542969 C6.42462311 46.59078667 11.86741271 44.88916653 17 44 C17.00533201 39.23013861 16.97174431 34.46272002 16.90234375 29.69335938 C16.88419567 28.07169885 16.87661314 26.44988378 16.87988281 24.828125 C16.88274378 22.49357857 16.8474002 20.1622282 16.8046875 17.828125 C16.81378143 17.10506165 16.82287537 16.38199829 16.83224487 15.63702393 C16.82807028 13.30183148 16.82807028 13.30183148 16 10 C13.02970191 7.74517493 13.02970191 7.74517493 10 6 C10 4.68 10 3.36 10 2 C22.375 1.01 22.375 1.01 35 0 C34.86078125 4.89392578 34.86078125 4.89392578 34.71875 9.88671875 C34.65634026 13.05063658 34.60777691 16.2144856 34.56054688 19.37866211 C34.52034037 21.57591494 34.46576415 23.77295406 34.39648438 25.96948242 C34.29930579 29.12993015 34.25404663 32.28754866 34.21875 35.44921875 C34.17745972 36.42960617 34.13616943 37.40999359 34.09362793 38.42008972 C34.09182003 41.17443792 34.15504502 43.37581475 35 46 C36.99037488 47.7997951 38.83885478 48.87655054 41.27746582 49.98420715 C41.8459021 50.31941879 42.41433838 50.65463043 43 51 C43 51.99 43 52.98 43 54 C39.96050698 54.67684298 36.91810835 55.33961872 33.875 56 C32.59109375 56.28617188 32.59109375 56.28617188 31.28125 56.578125 C26.77267206 57.54920333 22.64354396 58.24359575 18 58 C17.34 55.69 16.68 53.38 16 51 C15.34257812 51.61488281 15.34257812 51.61488281 14.671875 52.2421875 C8.93740057 57.11415968 3.514399 58.83191476 -4 59 C-8.34149434 58.53577395 -11.54372008 57.49469497 -14.62890625 54.328125 C-20.79569796 45.54352142 -19.12682618 33.70905606 -19.0625 23.4375 C-19.05747366 22.03320473 -19.05291276 20.6289077 -19.04882812 19.22460938 C-19.03711593 15.81636097 -19.02071372 12.4082036 -19 9 C-19.94875 8.690625 -20.8975 8.38125 -21.875 8.0625 C-25 7 -25 7 -27 6 C-26.67 4.68 -26.34 3.36 -26 2 C-21.85421785 1.66602805 -17.70836603 1.33292901 -13.5625 1 C-12.37849609 0.90460937 -11.19449219 0.80921875 -9.97460938 0.7109375 C-8.84990234 0.62070312 -7.72519531 0.53046875 -6.56640625 0.4375 C-5.52427979 0.35371094 -4.48215332 0.26992188 -3.40844727 0.18359375 C-1 0 -1 0 0 0 Z " fill="#000000" transform="translate(213,43)"/>
<path d="M0 0 C14.78985073 3.01713876 29.49419933 6.3757601 44.19433594 9.80102539 C48.04822699 10.69873378 51.90296822 11.59272284 55.7578125 12.48632812 C58.21359203 13.05707503 60.66932306 13.62803063 63.125 14.19921875 C64.27484375 14.46586838 65.4246875 14.73251801 66.609375 15.00724792 C67.66898437 15.2545314 68.72859375 15.50181488 69.8203125 15.7565918 C70.75117676 15.97324997 71.68204102 16.18990814 72.64111328 16.41313171 C75 17 75 17 78 18 C76.74507047 21.76478859 75.16902481 22.69380667 72.0625 25.125 C66.48373135 29.50774487 61.24556744 34.22469797 56 39 C54.41145833 38.36458333 52.82291667 37.72916667 51.234375 37.09375 C50.20820068 36.68382812 49.18202637 36.27390625 48.12475586 35.8515625 C45.85841606 34.94391169 43.59362071 34.03239578 41.33032227 33.1171875 C35.97163389 30.95575049 30.61540275 28.83454522 25.16796875 26.90625 C15.45836634 23.41291835 8.11506245 20.58878679 3 11 C2.63003906 10.32324219 2.26007812 9.64648438 1.87890625 8.94921875 C0.3337564 5.7421744 0 3.60823093 0 0 Z " fill="#000000" transform="translate(6,78)"/>
<path d="M0 0 C2.87029869 1.79393668 4.49131638 2.98263276 6 6 C6.5811138 13.08958838 6.5811138 13.08958838 4.125 16.9375 C0.63841797 20.3215355 -2.03592714 20.38966392 -6.73828125 20.359375 C-10.32520929 19.78943134 -11.86838894 17.79773951 -14 15 C-15.43304064 12.13391871 -15.30644155 10.18699217 -15 7 C-11.06142639 0.04185329 -7.71503326 -0.99935664 0 0 Z " fill="#000000" transform="translate(419,81)"/>
</svg>
